# xmcd
#
# Track frame offsets:
#	150
#	15449
#	26820
#	44213
#	62333
#	81051
#	97486
#	113038
#	127185
#	141877
#	157750
#	172649
#	183908
#	197894
#	214909
#	231127
#	251042
#	267444
#	281632
#	295642
#	313733
#	328795
#
# Disc length: 4574 seconds
#
# Revision: 2
# Processed by: cddbd v1.4b41PL1 Copyright (c) Steve Scherf et al.
# Submitted via: audiograbber 1.80
#
DISCID=4611dc16
DTITLE=Various Country Artists - Contemporary Country - The Late 80's Hot Hits
DYEAR=1900
DGENRE=
TTITLE0=George Strait - All My Ex's Live In Texas
TTITLE1=Patty Loveless - A Little Bit In Love
TTITLE2=Dwight Yoakam - I Sang Dixie
TTITLE3=T. Graham Brown - Don't Go To Strangers
TTITLE4=K.T. Olsin - 80's Ladies
TTITLE5=Keith Whitley - I'm No Stranger To The Rain
TTITLE6=Tanya Tucker - If It Don't Come Easy
TTITLE7=Steve Wariner - Lynda
TTITLE8=Holly Dunn - Love Someone Like Me
TTITLE9=Reba McEntire - One Promise Too Late
TTITLE10=Merle Haggard - Chill Factor
TTITLE11=Randy Travis - Too Gone Too Long
TTITLE12=Highway 101 - Whiskey, If You Were A Woman
TTITLE13=Conway Twitty - She's Got A Single Thing In Mind
TTITLE14=Alabama - Fallin' Again
TTITLE15=Kathy Mattea - Goin' Gone
TTITLE16=Waylon Jennings - Rose In Paradise
TTITLE17=Sweethearts Of The Rodeo - Midnight Girl Sunset Town
TTITLE18=The Oak Ridge Boys - Gonna Take A Lot Of River
TTITLE19=Shenandoah - Sunday In The South
TTITLE20=Lee Greenwood - Mornin' Ride
TTITLE21=Skip Ewing - Burnin' A Hole In My Heart
EXTD=added Artists names
EXTT0=
EXTT1=
EXTT2=
EXTT3=
EXTT4=
EXTT5=
EXTT6=
EXTT7=
EXTT8=
EXTT9=
EXTT10=
EXTT11=
EXTT12=
EXTT13=
EXTT14=
EXTT15=
EXTT16=
EXTT17=
EXTT18=
EXTT19=
EXTT20=
EXTT21=
PLAYORDER=
